<?xml version="1.0" encoding="UTF-8" standalone="no"?>
<svg
   xmlns:dc="http://purl.org/dc/elements/1.1/"
   xmlns:cc="http://creativecommons.org/ns#"
   xmlns:rdf="http://www.w3.org/1999/02/22-rdf-syntax-ns#"
   xmlns:svg="http://www.w3.org/2000/svg"
   xmlns="http://www.w3.org/2000/svg"
   viewBox="0 0 1122.52 375.59332"
   height="375.59332"
   width="1122.52"
   xml:space="preserve"
   id="svg2"
   version="1.1"><metadata
     id="metadata8"><rdf:RDF><cc:Work
         rdf:about=""><dc:format>image/svg+xml</dc:format><dc:type
           rdf:resource="http://purl.org/dc/dcmitype/StillImage" /></cc:Work></rdf:RDF></metadata><defs
     id="defs6"><linearGradient
       id="linearGradient28"
       spreadMethod="pad"
       gradientTransform="matrix(169.26112,0,0,-169.26112,332.59586,138.44353)"
       gradientUnits="userSpaceOnUse"
       y2="0"
       x2="1"
       y1="0"
       x1="0"><stop
         id="stop24"
         offset="0"
         style="stop-opacity:1;stop-color:#1da296" /><stop
         id="stop26"
         offset="1"
         style="stop-opacity:1;stop-color:#45519d" /></linearGradient><linearGradient
       id="linearGradient52"
       spreadMethod="pad"
       gradientTransform="matrix(116.64603,0,0,-116.64603,392.30063,74.980347)"
       gradientUnits="userSpaceOnUse"
       y2="0"
       x2="1"
       y1="0"
       x1="0"><stop
         id="stop44"
         offset="0"
         style="stop-opacity:1;stop-color:#96c22c" /><stop
         id="stop46"
         offset="0.119399"
         style="stop-opacity:1;stop-color:#96c22c" /><stop
         id="stop48"
         offset="0.33972587"
         style="stop-opacity:1;stop-color:#96c22c" /><stop
         id="stop50"
         offset="1"
         style="stop-opacity:1;stop-color:#38ae6c" /></linearGradient><linearGradient
       id="linearGradient76"
       spreadMethod="pad"
       gradientTransform="matrix(-116.64603,0,0,116.64603,392.30063,188.05927)"
       gradientUnits="userSpaceOnUse"
       y2="0"
       x2="1"
       y1="0"
       x1="0"><stop
         id="stop68"
         offset="0"
         style="stop-opacity:1;stop-color:#96c22c" /><stop
         id="stop70"
         offset="0.119399"
         style="stop-opacity:1;stop-color:#96c22c" /><stop
         id="stop72"
         offset="0.33972587"
         style="stop-opacity:1;stop-color:#96c22c" /><stop
         id="stop74"
         offset="1"
         style="stop-opacity:1;stop-color:#38ae6c" /></linearGradient><clipPath
       id="clipPath86"
       clipPathUnits="userSpaceOnUse"><path
         id="path84"
         d="M 0,281.695 H 841.89 V 0 H 0 Z" /></clipPath><clipPath
       id="clipPath94"
       clipPathUnits="userSpaceOnUse"><path
         id="path92"
         d="M 363.765,198.337 H 470.688 V 75.0325 H 363.765 Z" /></clipPath><clipPath
       id="clipPath118"
       clipPathUnits="userSpaceOnUse"><path
         id="path116"
         d="m 593.275,223.074 c -6.6,0 -12.001,-5.4 -12.001,-12 v 0 -145.261 c 0,-6.599 5.401,-12 12.001,-12 v 0 h 145.261 c 6.6,0 12,5.401 12,12 v 0 145.261 c 0,6.6 -5.4,12 -12,12 v 0 z" /></clipPath><clipPath
       id="clipPath134"
       clipPathUnits="userSpaceOnUse"><path
         id="path132"
         d="M 0,281.695 H 841.89 V 0 H 0 Z" /></clipPath><clipPath
       id="clipPath142"
       clipPathUnits="userSpaceOnUse"><path
         id="path140"
         d="M 612.444,198.337 H 719.367 V 75.0325 H 612.444 Z" /></clipPath><linearGradient
       id="linearGradient172"
       spreadMethod="pad"
       gradientTransform="matrix(169.26112,0,0,-169.26112,86.610893,138.44353)"
       gradientUnits="userSpaceOnUse"
       y2="0"
       x2="1"
       y1="0"
       x1="0"><stop
         id="stop168"
         offset="0"
         style="stop-opacity:1;stop-color:#1da296" /><stop
         id="stop170"
         offset="1"
         style="stop-opacity:1;stop-color:#45519d" /></linearGradient><linearGradient
       id="linearGradient192"
       spreadMethod="pad"
       gradientTransform="matrix(107.74295,0,0,-107.74295,150.43982,66.401932)"
       gradientUnits="userSpaceOnUse"
       y2="0"
       x2="1"
       y1="0"
       x1="0"><stop
         id="stop188"
         offset="0"
         style="stop-opacity:1;stop-color:#1da296" /><stop
         id="stop190"
         offset="1"
         style="stop-opacity:1;stop-color:#45519d" /></linearGradient><linearGradient
       id="linearGradient212"
       spreadMethod="pad"
       gradientTransform="matrix(-107.74295,0,0,107.74295,150.43982,170.85004)"
       gradientUnits="userSpaceOnUse"
       y2="0"
       x2="1"
       y1="0"
       x1="0"><stop
         id="stop208"
         offset="0"
         style="stop-opacity:1;stop-color:#1da296" /><stop
         id="stop210"
         offset="1"
         style="stop-opacity:1;stop-color:#45519d" /></linearGradient><clipPath
       id="clipPath222"
       clipPathUnits="userSpaceOnUse"><path
         id="path220"
         d="M 0,281.695 H 841.89 V 0 H 0 Z" /></clipPath><clipPath
       id="clipPath230"
       clipPathUnits="userSpaceOnUse"><path
         id="path228"
         d="M 117.78,198.337 H 224.703 V 75.0325 H 117.78 Z" /></clipPath></defs><g
     transform="matrix(1.3333333,0,0,-1.3333333,0,375.59333)"
     id="g10"><g
       id="g12"><g
         id="g14"><g
           id="g20"><g
             id="g22"><path
               id="path30"
               style="fill:url(#linearGradient28);stroke:none"
               d="m 344.596,223.074 c -6.6,0 -12,-5.4 -12,-12 v 0 -145.261 c 0,-6.599 5.4,-12 12,-12 v 0 h 145.261 c 6.6,0 12,5.401 12,12 v 0 145.261 c 0,6.6 -5.4,12 -12,12 v 0 z" /></g></g></g></g><g
       id="g32"><g
         id="g34"><g
           id="g40"><g
             id="g42"><path
               id="path54"
               style="fill:url(#linearGradient52);stroke:none"
               d="m 392.301,53.813 h 97.556 c 4.696,0 8.785,2.735 10.753,6.689 v 0 c -17.216,41.622 -59.222,71.018 -108.309,71.018 v 0 z" /></g></g></g></g><g
       id="g56"><g
         id="g58"><g
           id="g64"><g
             id="g66"><path
               id="path78"
               style="fill:url(#linearGradient76);stroke:none"
               d="m 344.596,223.074 c -6.6,0 -12,-5.4 -12,-12 v 0 -63.639 c 17.465,-10.107 37.886,-15.915 59.705,-15.915 v 0 91.554 z" /></g></g></g></g><g
       id="g80"><g
         clip-path="url(#clipPath86)"
         id="g82"><g
           id="g88"><g
             id="g90" /><g
             id="g102"><g
               style="opacity:0.27000403"
               id="g100"
               clip-path="url(#clipPath94)"><g
                 id="g98"
                 transform="translate(435.1055,137.8295)"><path
                   id="path96"
                   style="fill:#393780;fill-opacity:1;fill-rule:nonzero;stroke:none"
                   d="m 0,0 c 4.462,3.699 6.693,8.954 6.693,15.766 0,6.927 -2.231,12.242 -6.693,15.942 -4.465,3.699 -10.982,5.548 -19.554,5.548 H -42.805 V -5.548 h 23.251 C -10.982,-5.548 -4.465,-3.699 0,0 m 10.48,55.047 c 8.042,-3.641 14.239,-8.807 18.584,-15.501 4.344,-6.693 6.518,-14.621 6.518,-23.78 0,-9.044 -2.174,-16.942 -6.518,-23.693 C 24.719,-14.682 18.522,-19.848 10.48,-23.429 2.437,-27.011 -7.047,-28.8 -17.967,-28.8 h -24.838 v -9.75 c 0,-13.391 -10.856,-24.247 -24.247,-24.247 -2.368,0 -4.288,1.92 -4.288,4.288 V 56.22 c 0,2.368 1.92,4.288 4.288,4.288 h 49.085 c 10.92,0 20.404,-1.822 28.447,-5.461" /></g></g></g></g><g
           transform="translate(435.1055,139.5883)"
           id="g104"><path
             id="path106"
             style="fill:#ffffff;fill-opacity:1;fill-rule:nonzero;stroke:none"
             d="m 0,0 c 4.462,3.699 6.693,8.954 6.693,15.766 0,6.927 -2.231,12.242 -6.693,15.942 -4.465,3.699 -10.982,5.548 -19.554,5.548 H -42.805 V -5.549 h 23.251 c 8.572,0 15.089,1.85 19.554,5.549 m 10.48,55.047 c 8.042,-3.641 14.239,-8.807 18.584,-15.501 4.344,-6.693 6.518,-14.621 6.518,-23.78 0,-9.044 -2.174,-16.942 -6.518,-23.693 C 24.719,-14.682 18.522,-19.848 10.48,-23.429 2.437,-27.011 -7.047,-28.8 -17.967,-28.8 h -24.838 v -9.75 c 0,-13.391 -10.856,-24.247 -24.247,-24.247 -2.368,0 -4.288,1.92 -4.288,4.288 V 56.219 c 0,2.369 1.92,4.288 4.288,4.288 h 49.085 c 10.92,0 20.404,-1.821 28.447,-5.46" /></g><g
           transform="translate(738.5361,53.8129)"
           id="g108"><path
             id="path110"
             style="fill:#00aee1;fill-opacity:1;fill-rule:nonzero;stroke:none"
             d="m 0,0 h -145.262 c -6.599,0 -12,5.4 -12,12 v 145.261 c 0,6.6 5.401,12 12,12 H 0 c 6.6,0 12,-5.4 12,-12 V 12 C 12,5.4 6.6,0 0,0" /></g></g></g><g
       id="g112"><g
         clip-path="url(#clipPath118)"
         id="g114"><g
           transform="translate(757.626,18.4409)"
           id="g120"><path
             id="path122"
             style="fill:#2b2b2a;fill-opacity:1;fill-rule:nonzero;stroke:none"
             d="M 0,0 C 0,62.452 -52.225,113.079 -116.646,113.079 V 0 Z" /></g><g
           transform="translate(524.333,244.5986)"
           id="g124"><path
             id="path126"
             style="fill:#2b2b2a;fill-opacity:1;fill-rule:nonzero;stroke:none"
             d="M 0,0 C 0,-62.452 52.225,-113.079 116.646,-113.079 V 0 Z" /></g></g></g><g
       id="g128"><g
         clip-path="url(#clipPath134)"
         id="g130"><g
           id="g136"><g
             id="g138" /><g
             id="g150"><g
               style="opacity:0.27000403"
               id="g148"
               clip-path="url(#clipPath142)"><g
                 id="g146"
                 transform="translate(683.7842,137.8295)"><path
                   id="path144"
                   style="fill:#393780;fill-opacity:1;fill-rule:nonzero;stroke:none"
                   d="m 0,0 c 4.462,3.699 6.693,8.954 6.693,15.766 0,6.927 -2.231,12.242 -6.693,15.942 -4.464,3.699 -10.982,5.548 -19.554,5.548 H -42.805 V -5.548 h 23.251 c 8.572,0 15.09,1.849 19.554,5.548 m 10.48,55.047 c 8.042,-3.641 14.239,-8.807 18.584,-15.501 4.344,-6.693 6.518,-14.621 6.518,-23.78 0,-9.044 -2.174,-16.942 -6.518,-23.693 C 24.719,-14.682 18.522,-19.848 10.48,-23.429 2.437,-27.011 -7.047,-28.8 -17.967,-28.8 h -24.838 v -9.75 c 0,-13.391 -10.856,-24.247 -24.247,-24.247 -2.369,0 -4.288,1.92 -4.288,4.288 V 56.22 c 0,2.368 1.919,4.288 4.288,4.288 h 49.085 c 10.92,0 20.404,-1.822 28.447,-5.461" /></g></g></g></g><g
           transform="translate(683.7842,139.5883)"
           id="g152"><path
             id="path154"
             style="fill:#ffffff;fill-opacity:1;fill-rule:nonzero;stroke:none"
             d="m 0,0 c 4.462,3.699 6.693,8.954 6.693,15.766 0,6.927 -2.231,12.242 -6.693,15.942 -4.464,3.699 -10.982,5.548 -19.554,5.548 H -42.805 V -5.549 h 23.251 c 8.572,0 15.09,1.85 19.554,5.549 m 10.48,55.047 c 8.042,-3.641 14.239,-8.807 18.584,-15.501 4.344,-6.693 6.518,-14.621 6.518,-23.78 0,-9.044 -2.174,-16.942 -6.518,-23.693 C 24.719,-14.682 18.522,-19.848 10.48,-23.429 2.437,-27.011 -7.047,-28.8 -17.967,-28.8 h -24.838 v -9.75 c 0,-13.391 -10.856,-24.247 -24.247,-24.247 -2.369,0 -4.288,1.92 -4.288,4.288 V 56.219 c 0,2.369 1.919,4.288 4.288,4.288 h 49.085 c 10.92,0 20.404,-1.821 28.447,-5.46" /></g></g></g><g
       id="g156"><g
         id="g158"><g
           id="g164"><g
             id="g166"><path
               id="path174"
               style="fill:url(#linearGradient172);stroke:none"
               d="m 98.611,223.074 c -6.6,0 -12,-5.4 -12,-12 v 0 -145.261 c 0,-6.599 5.4,-12 12,-12 v 0 h 145.261 c 6.6,0 12,5.401 12,12 v 0 145.261 c 0,6.6 -5.4,12 -12,12 v 0 z" /></g></g></g></g><g
       id="g176"><g
         id="g178"><g
           id="g184"><g
             id="g186"><path
               id="path194"
               style="fill:url(#linearGradient192);stroke:none"
               d="m 150.439,53.813 h 93.433 c 2.045,0 3.975,0.518 5.664,1.43 v 0 c -16.456,37.269 -54.631,63.383 -99.097,63.383 v 0 z" /></g></g></g></g><g
       id="g196"><g
         id="g198"><g
           id="g204"><g
             id="g206"><path
               id="path214"
               style="fill:url(#linearGradient212);stroke:none"
               d="m 98.611,223.074 c -6.6,0 -12,-5.4 -12,-12 v 0 -72.155 c 17.865,-12.756 39.938,-20.293 63.828,-20.293 v 0 104.448 z" /></g></g></g></g><g
       id="g216"><g
         clip-path="url(#clipPath222)"
         id="g218"><g
           id="g224"><g
             id="g226" /><g
             id="g238"><g
               style="opacity:0.27000403"
               id="g236"
               clip-path="url(#clipPath230)"><g
                 id="g234"
                 transform="translate(189.1206,137.8295)"><path
                   id="path232"
                   style="fill:#393780;fill-opacity:1;fill-rule:nonzero;stroke:none"
                   d="m 0,0 c 4.461,3.699 6.693,8.954 6.693,15.766 0,6.927 -2.232,12.242 -6.693,15.942 -4.464,3.699 -10.982,5.548 -19.554,5.548 H -42.805 V -5.548 h 23.251 c 8.572,0 15.09,1.849 19.554,5.548 m 10.48,55.047 c 8.042,-3.641 14.238,-8.807 18.584,-15.501 4.344,-6.693 6.518,-14.621 6.518,-23.78 0,-9.044 -2.174,-16.942 -6.518,-23.693 C 24.718,-14.682 18.522,-19.848 10.48,-23.429 2.436,-27.011 -7.047,-28.8 -17.967,-28.8 h -24.838 v -9.75 c 0,-13.391 -10.856,-24.247 -24.247,-24.247 -2.369,0 -4.288,1.92 -4.288,4.288 V 56.22 c 0,2.368 1.919,4.288 4.288,4.288 h 49.085 c 10.92,0 20.403,-1.822 28.447,-5.461" /></g></g></g></g><g
           transform="translate(189.1206,139.5883)"
           id="g240"><path
             id="path242"
             style="fill:#ffffff;fill-opacity:1;fill-rule:nonzero;stroke:none"
             d="m 0,0 c 4.461,3.699 6.693,8.954 6.693,15.766 0,6.927 -2.232,12.242 -6.693,15.942 -4.464,3.699 -10.982,5.548 -19.554,5.548 H -42.805 V -5.549 h 23.251 c 8.572,0 15.09,1.85 19.554,5.549 m 10.48,55.047 c 8.042,-3.641 14.238,-8.807 18.584,-15.501 4.344,-6.693 6.518,-14.621 6.518,-23.78 0,-9.044 -2.174,-16.942 -6.518,-23.693 C 24.718,-14.682 18.522,-19.848 10.48,-23.429 2.436,-27.011 -7.047,-28.8 -17.967,-28.8 h -24.838 v -9.75 c 0,-13.391 -10.856,-24.247 -24.247,-24.247 -2.369,0 -4.288,1.92 -4.288,4.288 V 56.219 c 0,2.369 1.919,4.288 4.288,4.288 h 49.085 c 10.92,0 20.403,-1.821 28.447,-5.46" /></g></g></g></g></svg>